<svg width="152" height="46" viewBox="0 0 152 46" fill="none" xmlns="http://www.w3.org/2000/svg">
<path d="M150.269 40.062C150.269 40.6242 150.158 41.181 149.943 41.7003C149.728 42.2197 149.412 42.6916 149.014 43.089C148.616 43.4863 148.144 43.8014 147.624 44.0161C147.104 44.2309 146.547 44.3411 145.985 44.3405H5.78426C4.64792 44.3417 3.55764 43.8916 2.75319 43.0893C1.94874 42.2869 1.49599 41.198 1.49451 40.062V5.94186C1.49599 4.80531 1.94856 3.71581 2.75285 2.91257C3.55714 2.10933 4.64741 1.65801 5.78426 1.65771H145.984C146.547 1.65771 147.104 1.76854 147.624 1.98385C148.143 2.19916 148.616 2.51475 149.014 2.91258C149.411 3.31041 149.727 3.7827 149.942 4.30247C150.157 4.82224 150.268 5.37931 150.268 5.94186L150.269 40.062Z" fill="white"/>
<path d="M145.985 45.3362H5.78425C4.38442 45.3359 3.04187 44.7805 2.0512 43.7918C1.06054 42.803 0.502663 41.4618 0.5 40.0623L0.5 5.94332C0.502071 4.54316 1.05957 3.201 2.05021 2.21125C3.04085 1.2215 4.38372 0.665 5.78425 0.663818L145.984 0.663818C147.384 0.66559 148.727 1.22228 149.717 2.2119C150.708 3.20152 151.265 4.54334 151.268 5.94332V40.0623C151.27 42.9713 148.896 45.3362 145.985 45.3362Z" fill="black"/>
<path d="M150.269 40.062C150.269 40.6242 150.158 41.181 149.943 41.7003C149.728 42.2197 149.412 42.6916 149.014 43.089C148.616 43.4863 148.144 43.8014 147.624 44.0161C147.104 44.2309 146.547 44.3411 145.985 44.3405H5.78426C4.64792 44.3417 3.55764 43.8916 2.75319 43.0893C1.94874 42.2869 1.49599 41.198 1.49451 40.062V5.94186C1.49599 4.80531 1.94856 3.71581 2.75285 2.91257C3.55714 2.10933 4.64741 1.65801 5.78426 1.65771H145.984C146.547 1.65771 147.104 1.76854 147.624 1.98385C148.143 2.19916 148.616 2.51475 149.014 2.91258C149.411 3.31041 149.727 3.7827 149.942 4.30247C150.157 4.82224 150.268 5.37931 150.268 5.94186L150.269 40.062Z" fill="black"/>
<path d="M34.1654 22.7646C34.133 19.1641 37.1143 17.4125 37.2506 17.3309C35.5622 14.8699 32.9452 14.5337 32.0256 14.5068C29.8276 14.2756 27.6956 15.8217 26.5759 15.8217C25.4339 15.8217 23.7098 14.5292 21.8515 14.5672C19.4602 14.604 17.2232 15.9881 15.9963 18.1375C13.4642 22.5199 15.3526 28.9601 17.7785 32.5025C18.9921 34.2385 20.41 36.1744 22.2661 36.1063C24.0819 36.0326 24.7601 34.9501 26.9514 34.9501C29.1225 34.9501 29.7594 36.1063 31.6523 36.0627C33.6011 36.0326 34.828 34.32 35.9991 32.5695C37.4014 30.5822 37.9646 28.6227 37.987 28.5222C37.9423 28.5066 34.2034 27.0789 34.1654 22.7646ZM30.5897 12.1765C31.5663 10.9555 32.2345 9.29437 32.049 7.60864C30.6355 7.6712 28.8678 8.58612 27.8498 9.78032C26.9492 10.8326 26.1446 12.5575 26.3525 14.1795C27.9403 14.2979 29.5706 13.3786 30.5897 12.1765Z" fill="white"/>
<path d="M60.466 35.857H57.9284L56.5383 31.4902H51.7066L50.3825 35.857H47.9119L52.7 20.9906H55.6567L60.466 35.857ZM56.1193 29.6582L54.8622 25.7762C54.7292 25.3797 54.4789 24.4458 54.1124 22.9757H54.0677C53.9202 23.6079 53.6844 24.5418 53.3615 25.7762L52.1256 29.6582H56.1193ZM72.7553 30.3653C72.7553 32.1884 72.2603 33.6295 71.2692 34.6874C70.3819 35.6291 69.279 36.0994 67.9639 36.0994C66.5436 36.0994 65.5223 35.5933 64.9021 34.579V40.2036H62.5198V28.6606C62.5198 27.5156 62.4896 26.3415 62.4315 25.1373H64.5267L64.6597 26.8364H64.7044C65.4988 25.5562 66.7045 24.9161 68.3225 24.9161C69.5875 24.9161 70.6434 25.4154 71.4882 26.4152C72.3318 27.4173 72.7553 28.7332 72.7553 30.3653ZM70.3283 30.4524C70.3283 29.4091 70.0936 28.5489 69.6221 27.8708C69.107 27.1659 68.4153 26.8129 67.5482 26.8129C66.9604 26.8129 66.4263 27.0095 65.9492 27.3972C65.4709 27.7881 65.158 28.2987 65.0116 28.9309C64.9463 29.1674 64.9092 29.4108 64.901 29.6559V31.4444C64.901 32.223 65.1402 32.881 65.6184 33.4195C66.0967 33.9557 66.7179 34.2249 67.4822 34.2249C68.3795 34.2249 69.0779 33.8775 69.5774 33.1882C70.078 32.4967 70.3283 31.5852 70.3283 30.4524ZM85.0882 30.3653C85.0882 32.1884 84.5932 33.6295 83.6021 34.6874C82.7137 35.6291 81.6119 36.0994 80.2956 36.0994C78.8754 36.0994 77.8541 35.5933 77.2339 34.579V40.2036H74.8516V28.6606C74.8516 27.5156 74.8214 26.3415 74.7633 25.1373H76.8585L76.9914 26.8364H77.0361C77.8295 25.5562 79.0352 24.9161 80.6543 24.9161C81.9181 24.9161 82.9741 25.4154 83.8211 26.4152C84.6636 27.4173 85.0882 28.7332 85.0882 30.3653ZM82.6601 30.4524C82.6601 29.4091 82.4243 28.5489 81.9528 27.8708C81.4376 27.1659 80.7482 26.8129 79.8811 26.8129C79.2933 26.8129 78.7592 27.0095 78.2798 27.3972C77.8016 27.7881 77.4898 28.2987 77.3434 28.9309C77.2708 29.2259 77.2317 29.466 77.2317 29.6559V31.4444C77.2317 32.223 77.4719 32.881 77.9479 33.4195C78.4262 33.9545 79.0475 34.2249 79.814 34.2249C80.7124 34.2249 81.4108 33.8775 81.9092 33.1882C82.4098 32.4967 82.6601 31.5852 82.6601 30.4524ZM98.8771 31.6868C98.8771 32.9525 98.4346 33.9814 97.5552 34.7756C96.5875 35.6425 95.2366 36.077 93.5046 36.077C91.9044 36.077 90.6217 35.7687 89.654 35.151L90.2049 33.1659C91.2496 33.7847 92.3972 34.0931 93.6465 34.0931C94.5449 34.0931 95.2433 33.8898 95.7416 33.4865C96.2411 33.0821 96.4937 32.5414 96.4937 31.8667C96.4937 31.2623 96.2847 30.7563 95.8746 30.3441C95.4623 29.933 94.7807 29.5498 93.823 29.1979C91.2195 28.2272 89.9166 26.8073 89.9166 24.9395C89.9166 23.7197 90.3769 22.721 91.2954 21.9401C92.214 21.1604 93.4319 20.7705 94.9472 20.7705C96.3003 20.7705 97.4278 21.0062 98.3229 21.4765L97.7251 23.418C96.8825 22.9623 95.9316 22.7344 94.8678 22.7344C94.0275 22.7344 93.3683 22.941 92.8967 23.3521C92.5 23.7197 92.2989 24.1676 92.2989 24.6994C92.2989 25.2858 92.528 25.7729 92.9839 26.1549C93.3794 26.5068 94.1013 26.89 95.1449 27.3011C96.4255 27.8172 97.3664 28.4182 97.9686 29.1086C98.5754 29.7989 98.8771 30.6602 98.8771 31.6868ZM106.774 26.9246H104.148V32.1292C104.148 33.453 104.611 34.1132 105.538 34.1132C105.964 34.1132 106.317 34.0774 106.596 34.0026L106.662 35.8112C106.193 35.9866 105.575 36.0748 104.809 36.0748C103.869 36.0748 103.133 35.7877 102.603 35.2135C102.074 34.6393 101.808 33.6775 101.808 32.3236V26.9202H100.244V25.1328H101.808V23.17L104.148 22.464V25.1328H106.774V26.9246ZM118.598 30.4089C118.598 32.0566 118.127 33.4094 117.186 34.4673C116.201 35.5565 114.892 36.0994 113.259 36.0994C111.684 36.0994 110.431 35.5777 109.497 34.5354C108.563 33.4909 108.096 32.175 108.096 30.5876C108.096 28.9265 108.578 27.5658 109.541 26.5079C110.505 25.4489 111.803 24.9194 113.436 24.9194C115.009 24.9194 116.273 25.4422 117.229 26.4856C118.144 27.4977 118.598 28.8047 118.598 30.4089ZM116.129 30.4636C116.129 29.4817 115.917 28.6394 115.491 27.9345C114.991 27.0833 114.276 26.6576 113.35 26.6576C112.396 26.6576 111.664 27.0833 111.165 27.9345C110.738 28.6394 110.526 29.4962 110.526 30.5083C110.526 31.4913 110.738 32.3359 111.165 33.0385C111.68 33.8898 112.399 34.3154 113.33 34.3154C114.24 34.3154 114.954 33.8808 115.471 33.0173C115.909 32.2956 116.129 31.4478 116.129 30.4636ZM126.345 27.2318C126.098 27.1871 125.846 27.165 125.594 27.1659C124.756 27.1659 124.108 27.4809 123.652 28.1155C123.257 28.674 123.058 29.38 123.058 30.2324V35.857H120.676V28.5131C120.678 27.3878 120.655 26.2626 120.606 25.1384H122.681L122.769 27.1894H122.834C123.087 26.4845 123.483 25.9159 124.026 25.4903C124.523 25.1184 125.127 24.917 125.748 24.9161C125.968 24.9161 126.167 24.9317 126.343 24.9596L126.345 27.2318ZM137 29.99C137.006 30.352 136.977 30.7138 136.913 31.0702H129.766C129.793 32.1292 130.139 32.9402 130.803 33.4988C131.405 33.997 132.184 34.2472 133.14 34.2472C134.199 34.2472 135.164 34.0797 136.032 33.7412L136.405 35.3934C135.391 35.8357 134.193 36.0558 132.811 36.0558C131.148 36.0558 129.843 35.5665 128.893 34.5902C127.946 33.6127 127.471 32.299 127.471 30.6535C127.471 29.0382 127.912 27.6921 128.796 26.6185C129.721 25.4724 130.971 24.8993 132.545 24.8993C134.09 24.8993 135.26 25.4724 136.055 26.6185C136.684 27.5267 137 28.6528 137 29.99ZM134.728 29.3722C134.745 28.6651 134.589 28.0562 134.266 27.5413C133.853 26.8777 133.219 26.547 132.368 26.547C131.589 26.547 130.955 26.8699 130.472 27.5178C130.075 28.0328 129.84 28.6517 129.767 29.37L134.728 29.3722Z" fill="white"/>
<path d="M51.0194 15.7349C50.3568 15.7349 49.7836 15.7025 49.3065 15.6478V8.46027C49.9738 8.35721 50.6481 8.30641 51.3234 8.30834C54.0555 8.30834 55.3137 9.65223 55.3137 11.8429C55.3137 14.3698 53.8275 15.7349 51.0194 15.7349ZM51.4195 9.22996C51.0507 9.22996 50.7367 9.2523 50.4764 9.30593V14.7697C50.6172 14.7921 50.8876 14.8021 51.2675 14.8021C53.0576 14.8021 54.0767 13.7833 54.0767 11.8753C54.0767 10.1739 53.1548 9.22996 51.4195 9.22996ZM59.2347 15.7897C57.6949 15.7897 56.697 14.6402 56.697 13.0795C56.697 11.453 57.7161 10.2935 59.3218 10.2935C60.8393 10.2935 61.8595 11.3882 61.8595 12.9935C61.8595 14.6402 60.808 15.7897 59.2347 15.7897ZM59.2794 11.1492C58.4335 11.1492 57.8915 11.9401 57.8915 13.046C57.8915 14.1308 58.4447 14.9217 59.2682 14.9217C60.0917 14.9217 60.6448 14.076 60.6448 13.0237C60.6448 11.9513 60.1029 11.1492 59.2794 11.1492ZM70.6401 10.4018L68.9919 15.6701H67.9181L67.2354 13.3823C67.0656 12.8227 66.9242 12.2548 66.8119 11.6809H66.7895C66.7035 12.2551 66.5403 12.8304 66.3671 13.3823L65.6408 15.6701H64.5558L63.0048 10.4018H64.2083L64.805 12.9064C64.9458 13.5029 65.0642 14.066 65.1626 14.5977H65.1849C65.2709 14.1542 65.4117 13.6001 65.6185 12.9176L66.3671 10.4029H67.3214L68.0377 12.8639C68.2109 13.4605 68.3516 14.0459 68.4612 14.5988H68.4924C68.5684 14.057 68.688 13.4817 68.85 12.8639L69.4903 10.4029L70.6401 10.4018ZM76.7077 15.6701H75.5366V12.645C75.5366 11.7133 75.179 11.2464 74.474 11.2464C73.78 11.2464 73.3029 11.8429 73.3029 12.5366V15.6701H72.1319V11.9077C72.1319 11.4419 72.1207 10.9425 72.0883 10.4007H73.1185L73.1733 11.214H73.2057C73.5208 10.6509 74.16 10.2935 74.8762 10.2935C75.9825 10.2935 76.7088 11.1391 76.7088 12.5154L76.7077 15.6701ZM79.937 15.6701H78.7648V7.98438H79.937V15.6701ZM84.2066 15.7897C82.6679 15.7897 81.669 14.6402 81.669 13.0795C81.669 11.453 82.6881 10.2935 84.2927 10.2935C85.8112 10.2935 86.8303 11.3882 86.8303 12.9935C86.8314 14.6402 85.7788 15.7897 84.2066 15.7897ZM84.2502 11.1492C83.4043 11.1492 82.8624 11.9401 82.8624 13.046C82.8624 14.1308 83.4166 14.9217 84.2379 14.9217C85.0626 14.9217 85.6146 14.076 85.6146 13.0237C85.6157 11.9513 85.0749 11.1492 84.2502 11.1492ZM91.4475 15.6701L91.3625 15.0635H91.3313C90.9737 15.5517 90.4518 15.7897 89.7903 15.7897C88.8461 15.7897 88.1757 15.1283 88.1757 14.2391C88.1757 12.9388 89.3032 12.2663 91.2553 12.2663V12.1691C91.2553 11.4754 90.8876 11.1279 90.1613 11.1279C89.6417 11.1279 89.1858 11.2586 88.7847 11.5189L88.5467 10.7492C89.0338 10.4454 89.6417 10.2935 90.3558 10.2935C91.7324 10.2935 92.4274 11.0196 92.4274 12.473V14.4134C92.4274 14.9451 92.4509 15.3574 92.5034 15.6713L91.4475 15.6701ZM91.2866 13.046C89.9859 13.046 89.3333 13.3611 89.3333 14.1084C89.3333 14.6614 89.6697 14.9317 90.1367 14.9317C90.7323 14.9317 91.2866 14.4771 91.2866 13.8593V13.046ZM98.114 15.6701L98.0592 14.8245H98.0268C97.6904 15.4635 97.125 15.7897 96.335 15.7897C95.0645 15.7897 94.1237 14.6726 94.1237 13.1008C94.1237 11.453 95.0992 10.2923 96.4311 10.2923C97.1362 10.2923 97.6357 10.5303 97.9173 11.0084H97.9408V7.98438H99.1129V14.2503C99.1129 14.7597 99.1252 15.2367 99.1565 15.6701H98.114ZM97.9408 12.5701C97.9408 11.8328 97.4524 11.2039 96.7071 11.2039C95.8389 11.2039 95.3081 11.9736 95.3081 13.0572C95.3081 14.1196 95.859 14.8468 96.6837 14.8468C97.42 14.8468 97.9408 14.2067 97.9408 13.4482V12.5701ZM106.545 15.7897C105.006 15.7897 104.008 14.6402 104.008 13.0795C104.008 11.453 105.027 10.2935 106.632 10.2935C108.151 10.2935 109.17 11.3882 109.17 12.9935C109.171 14.6402 108.119 15.7897 106.545 15.7897ZM106.588 11.1492C105.744 11.1492 105.202 11.9401 105.202 13.046C105.202 14.1308 105.755 14.9217 106.577 14.9217C107.402 14.9217 107.954 14.076 107.954 13.0237C107.956 11.9513 107.414 11.1492 106.588 11.1492ZM115.467 15.6701H114.295V12.645C114.295 11.7133 113.938 11.2464 113.233 11.2464C112.539 11.2464 112.063 11.8429 112.063 12.5366V15.6701H110.89V11.9077C110.89 11.4419 110.879 10.9425 110.847 10.4007H111.877L111.932 11.214H111.964C112.278 10.6509 112.919 10.2923 113.634 10.2923C114.74 10.2923 115.467 11.138 115.467 12.5143V15.6701ZM123.346 11.2799H122.058V13.8381C122.058 14.4894 122.284 14.8144 122.74 14.8144C122.946 14.8144 123.119 14.7921 123.259 14.7597L123.292 15.6489C123.065 15.7361 122.761 15.7796 122.383 15.7796C121.46 15.7796 120.908 15.2702 120.908 13.9364V11.2799H120.139V10.4018H120.908V9.43663L122.058 9.0892V10.4007H123.346V11.2799ZM129.546 15.6701H128.376V12.6673C128.376 11.7245 128.019 11.2475 127.313 11.2475C126.706 11.2475 126.141 11.6597 126.141 12.4942V15.6701H124.971V7.98438H126.141V11.1492H126.164C126.533 10.575 127.067 10.2923 127.749 10.2923C128.864 10.2923 129.546 11.1592 129.546 12.5366V15.6701ZM135.897 13.3175H132.383C132.405 14.3151 133.066 14.8781 134.043 14.8781C134.563 14.8781 135.041 14.791 135.463 14.629L135.646 15.4423C135.147 15.659 134.561 15.7673 133.878 15.7673C132.23 15.7673 131.254 14.7262 131.254 13.1119C131.254 11.4966 132.253 10.2823 133.746 10.2823C135.093 10.2823 135.937 11.2799 135.937 12.7869C135.945 12.9647 135.931 13.1428 135.897 13.3175ZM134.823 12.483C134.823 11.6697 134.413 11.0955 133.664 11.0955C132.992 11.0955 132.46 11.6809 132.384 12.483H134.823Z" fill="white"/>
</svg>
