<svg width="151" height="46" viewBox="0 0 151 46" fill="none" xmlns="http://www.w3.org/2000/svg">
<path d="M145.415 45.3243H5.85069C2.72446 45.3243 0.268127 42.868 0.268127 39.7418V6.24638C0.268127 3.12015 2.72446 0.663818 5.85069 0.663818H145.415C148.541 0.663818 150.997 3.12015 150.997 6.24638V39.7418C150.997 42.868 148.541 45.3243 145.415 45.3243Z" fill="black"/>
<path d="M145.415 1.55703C147.983 1.55703 150.104 3.6784 150.104 6.24638V39.7418C150.104 42.3097 147.983 44.4311 145.415 44.4311H5.85069C3.28271 44.4311 1.16134 42.3097 1.16134 39.7418V6.24638C1.16134 3.6784 3.28271 1.55703 5.85069 1.55703H145.415ZM145.415 0.663818H5.85069C2.72446 0.663818 0.268127 3.2318 0.268127 6.24638V39.7418C0.268127 42.868 2.72446 45.3243 5.85069 45.3243H145.415C148.541 45.3243 150.997 42.868 150.997 39.7418V6.24638C150.997 3.2318 148.541 0.663818 145.415 0.663818Z" fill="black"/>
<path d="M53.1908 12.0519C53.1908 12.9451 52.9675 13.7267 52.4092 14.2849C51.7393 14.9549 50.9578 15.2898 49.9529 15.2898C48.9481 15.2898 48.1665 14.9549 47.4966 14.2849C46.8267 13.615 46.4917 12.8335 46.4917 11.8286C46.4917 10.8238 46.8267 10.0422 47.4966 9.37229C48.1665 8.70239 48.9481 8.36743 49.9529 8.36743C50.3995 8.36743 50.8461 8.47908 51.2927 8.70239C51.7393 8.92569 52.0743 9.14899 52.2976 9.48394L51.7393 10.0422C51.2927 9.48394 50.7345 9.26064 49.9529 9.26064C49.283 9.26064 48.6131 9.48394 48.1665 10.0422C47.6082 10.4888 47.3849 11.1587 47.3849 11.9403C47.3849 12.7218 47.6082 13.3917 48.1665 13.8383C48.7248 14.2849 49.283 14.6199 49.9529 14.6199C50.7345 14.6199 51.2927 14.3966 51.851 13.8383C52.1859 13.5034 52.4092 13.0568 52.4092 12.4985H49.9529V11.6053H53.1908V12.0519ZM58.3268 9.26064H55.3122V11.382H58.1035V12.1636H55.3122V14.2849H58.3268V15.1782H54.419V8.47908H58.3268V9.26064ZM62.0112 15.1782H61.118V9.26064H59.22V8.47908H63.9093V9.26064H62.0112V15.1782ZM67.1472 15.1782V8.47908H68.0404V15.1782H67.1472ZM71.8366 15.1782H70.9433V9.26064H69.0453V8.47908H73.623V9.26064H71.7249V15.1782H71.8366ZM82.4434 14.2849C81.7735 14.9549 80.992 15.2898 79.9871 15.2898C78.9822 15.2898 78.2007 14.9549 77.5308 14.2849C76.8609 13.615 76.5259 12.8335 76.5259 11.8286C76.5259 10.8238 76.8609 10.0422 77.5308 9.37229C78.2007 8.70239 78.9822 8.36743 79.9871 8.36743C80.992 8.36743 81.7735 8.70239 82.4434 9.37229C83.1133 10.0422 83.4483 10.8238 83.4483 11.8286C83.4483 12.8335 83.1133 13.615 82.4434 14.2849ZM78.2007 13.7267C78.6473 14.1733 79.3172 14.5083 79.9871 14.5083C80.657 14.5083 81.3269 14.2849 81.7735 13.7267C82.2201 13.2801 82.5551 12.6102 82.5551 11.8286C82.5551 11.0471 82.3318 10.3772 81.7735 9.93055C81.3269 9.48394 80.657 9.14899 79.9871 9.14899C79.3172 9.14899 78.6473 9.37229 78.2007 9.93055C77.7541 10.3772 77.4191 11.0471 77.4191 11.8286C77.4191 12.6102 77.6424 13.2801 78.2007 13.7267ZM84.6765 15.1782V8.47908H85.6813L88.9192 13.7267V8.47908H89.8124V15.1782H88.9192L85.458 9.70725V15.1782H84.6765Z" fill="white" stroke="white" stroke-width="1.18519" stroke-miterlimit="10"/>
<path d="M76.3025 25.0035C73.6229 25.0035 71.5015 27.0132 71.5015 29.8045C71.5015 32.4841 73.6229 34.6055 76.3025 34.6055C78.9822 34.6055 81.1036 32.5958 81.1036 29.8045C81.1036 26.9015 78.9822 25.0035 76.3025 25.0035ZM76.3025 32.5958C74.8511 32.5958 73.6229 31.3676 73.6229 29.6928C73.6229 28.0181 74.8511 26.7899 76.3025 26.7899C77.754 26.7899 78.9822 27.9064 78.9822 29.6928C78.9822 31.3676 77.754 32.5958 76.3025 32.5958ZM65.919 25.0035C63.2394 25.0035 61.118 27.0132 61.118 29.8045C61.118 32.4841 63.2394 34.6055 65.919 34.6055C68.5986 34.6055 70.72 32.5958 70.72 29.8045C70.72 26.9015 68.5986 25.0035 65.919 25.0035ZM65.919 32.5958C64.4675 32.5958 63.2394 31.3676 63.2394 29.6928C63.2394 28.0181 64.4675 26.7899 65.919 26.7899C67.3704 26.7899 68.5986 27.9064 68.5986 29.6928C68.5986 31.3676 67.3704 32.5958 65.919 32.5958ZM53.5257 26.4549V28.4647H58.3267C58.215 29.5812 57.7684 30.4744 57.2102 31.0326C56.5403 31.7025 55.4238 32.4841 53.5257 32.4841C50.5111 32.4841 48.2781 30.1394 48.2781 27.1248C48.2781 24.1103 50.6228 21.7656 53.5257 21.7656C55.0888 21.7656 56.317 22.4355 57.2102 23.217L58.6616 21.7656C57.4335 20.6491 55.8704 19.7559 53.6373 19.7559C49.6179 19.7559 46.1567 23.1054 46.1567 27.1248C46.1567 31.1443 49.6179 34.4938 53.6373 34.4938C55.8704 34.4938 57.4335 33.8239 58.7733 32.3724C60.1131 31.0326 60.5597 29.1346 60.5597 27.6831C60.5597 27.2365 60.5597 26.7899 60.4481 26.4549H53.5257ZM104.215 28.0181C103.769 26.9015 102.652 25.0035 100.196 25.0035C97.7396 25.0035 95.7299 26.9015 95.7299 29.8045C95.7299 32.4841 97.7396 34.6055 100.419 34.6055C102.541 34.6055 103.88 33.2657 104.327 32.4841L102.764 31.3676C102.206 32.1491 101.536 32.7074 100.419 32.7074C99.3027 32.7074 98.6328 32.2608 98.0745 31.2559L104.439 28.5763L104.215 28.0181ZM97.7396 29.5812C97.7396 27.7947 99.1911 26.7899 100.196 26.7899C100.977 26.7899 101.759 27.2365 101.982 27.7947L97.7396 29.5812ZM92.492 34.1589H94.6134V20.2025H92.492V34.1589ZM89.1424 26.0083C88.5842 25.4501 87.691 24.8918 86.5745 24.8918C84.2298 24.8918 81.9968 27.0132 81.9968 29.6928C81.9968 32.3725 84.1181 34.3822 86.5745 34.3822C87.691 34.3822 88.5842 33.8239 89.0308 33.2657H89.1424V33.9356C89.1424 35.722 88.1376 36.7268 86.5745 36.7268C85.3463 36.7268 84.4531 35.8336 84.2298 35.0521L82.4434 35.8336C83.0016 37.0618 84.3414 38.6249 86.6861 38.6249C89.1424 38.6249 91.1522 37.1735 91.1522 33.7123V25.2268H89.1424V26.0083ZM86.6861 32.5958C85.2346 32.5958 84.0065 31.3676 84.0065 29.6928C84.0065 28.0181 85.2346 26.7899 86.6861 26.7899C88.1376 26.7899 89.2541 28.0181 89.2541 29.6928C89.2541 31.3676 88.1376 32.5958 86.6861 32.5958ZM113.929 20.2025H108.905V34.1589H111.026V28.9113H113.929C116.274 28.9113 118.507 27.2365 118.507 24.5569C118.507 21.8772 116.274 20.2025 113.929 20.2025ZM114.041 26.9015H111.026V22.1005H114.041C115.604 22.1005 116.497 23.4403 116.497 24.4452C116.385 25.6734 115.492 26.9015 114.041 26.9015ZM126.881 24.8918C125.317 24.8918 123.754 25.5617 123.196 27.0132L125.094 27.7947C125.541 27.0132 126.211 26.7899 126.992 26.7899C128.109 26.7899 129.114 27.4598 129.225 28.5763V28.688C128.89 28.4647 127.997 28.1297 127.104 28.1297C125.094 28.1297 123.084 29.2462 123.084 31.2559C123.084 33.154 124.759 34.3822 126.546 34.3822C127.997 34.3822 128.667 33.7123 129.225 33.0424H129.337V34.1589H131.347V28.7996C131.123 26.3433 129.225 24.8918 126.881 24.8918ZM126.657 32.5958C125.987 32.5958 124.982 32.2608 124.982 31.3676C124.982 30.2511 126.211 29.9161 127.216 29.9161C128.109 29.9161 128.555 30.1394 129.114 30.3627C128.89 31.7025 127.774 32.5958 126.657 32.5958ZM138.381 25.2268L136.036 31.2559H135.924L133.468 25.2268H131.235L134.919 33.7123L132.798 38.4016H134.919L140.614 25.2268H138.381ZM119.623 34.1589H121.745V20.2025H119.623V34.1589Z" fill="white"/>
<path d="M11.88 9.03809C11.5451 9.37304 11.4334 9.9313 11.4334 10.6012V35.2764C11.4334 35.9463 11.6567 36.5046 11.9917 36.8395L12.1033 36.9512L25.9481 23.1063V22.883L11.88 9.03809Z" fill="url(#paint0_linear_6970_11687)"/>
<path d="M30.4141 27.7948L25.8364 23.2171V22.8821L30.4141 18.3044L30.5257 18.4161L35.9966 21.5423C37.5597 22.4355 37.5597 23.887 35.9966 24.7802L30.4141 27.7948Z" fill="url(#paint1_linear_6970_11687)"/>
<path d="M30.5256 27.6835L25.8363 22.9941L11.8799 36.9505C12.4381 37.5088 13.2197 37.5088 14.2246 37.0622L30.5256 27.6835Z" fill="url(#paint2_linear_6970_11687)"/>
<path d="M30.5257 18.3052L14.2246 9.03793C13.2197 8.47966 12.4381 8.59132 11.8799 9.14959L25.8363 22.9946L30.5257 18.3052Z" fill="url(#paint3_linear_6970_11687)"/>
<path opacity="0.2" d="M30.414 27.5718L14.2246 36.7272C13.3313 37.2854 12.5498 37.1738 11.9915 36.7272L11.8799 36.8388L11.9915 36.9505C12.5498 37.3971 13.3313 37.5087 14.2246 36.9505L30.414 27.5718Z" fill="black"/>
<path opacity="0.12" d="M11.88 36.7272C11.5451 36.3923 11.4334 35.834 11.4334 35.1641V35.2758C11.4334 35.9457 11.6567 36.5039 11.9917 36.8389V36.7272H11.88ZM35.9967 24.4456L30.4141 27.5718L30.5258 27.6835L35.9967 24.5573C36.7782 24.1107 37.1132 23.5524 37.1132 22.9941C37.1132 23.5524 36.6666 23.999 35.9967 24.4456Z" fill="black"/>
<path opacity="0.25" d="M14.2246 9.14913L35.9966 21.5426C36.6665 21.9893 37.1131 22.4359 37.1131 22.9941C37.1131 22.4359 36.7782 21.8776 35.9966 21.431L14.2246 9.03748C12.6615 8.14425 11.4333 8.81417 11.4333 10.6006V10.7123C11.4333 9.03748 12.6615 8.2559 14.2246 9.14913Z" fill="white"/>
<defs>
<linearGradient id="paint0_linear_6970_11687" x1="24.6082" y1="10.3891" x2="5.86963" y2="29.1264" gradientUnits="userSpaceOnUse">
<stop stop-color="#00A0FF"/>
<stop offset="0.007" stop-color="#00A1FF"/>
<stop offset="0.26" stop-color="#00BEFF"/>
<stop offset="0.512" stop-color="#00D2FF"/>
<stop offset="0.76" stop-color="#00DFFF"/>
<stop offset="1" stop-color="#00E3FF"/>
</linearGradient>
<linearGradient id="paint1_linear_6970_11687" x1="38.0443" y1="22.9949" x2="11.0281" y2="22.9949" gradientUnits="userSpaceOnUse">
<stop stop-color="#FFE000"/>
<stop offset="0.409" stop-color="#FFBD00"/>
<stop offset="0.775" stop-color="#FFA500"/>
<stop offset="1" stop-color="#FF9C00"/>
</linearGradient>
<linearGradient id="paint2_linear_6970_11687" x1="27.9878" y1="25.5577" x2="2.57822" y2="50.9672" gradientUnits="userSpaceOnUse">
<stop stop-color="#FF3A44"/>
<stop offset="1" stop-color="#C31162"/>
</linearGradient>
<linearGradient id="paint3_linear_6970_11687" x1="8.41534" y1="0.860425" x2="19.7627" y2="12.2076" gradientUnits="userSpaceOnUse">
<stop stop-color="#32A071"/>
<stop offset="0.069" stop-color="#2DA771"/>
<stop offset="0.476" stop-color="#15CF74"/>
<stop offset="0.801" stop-color="#06E775"/>
<stop offset="1" stop-color="#00F076"/>
</linearGradient>
</defs>
</svg>
